<?xml version="1.0" encoding="utf-8"?>
<!-- Generator: Adobe Illustrator 15.1.0, SVG Export Plug-In . SVG Version: 6.00 Build 0)  -->
<!DOCTYPE svg PUBLIC "-//W3C//DTD SVG 1.1//EN" "http://www.w3.org/Graphics/SVG/1.1/DTD/svg11.dtd">
<svg version="1.1" id="Calque_1" xmlns="http://www.w3.org/2000/svg" xmlns:xlink="http://www.w3.org/1999/xlink" x="0px" y="0px"
	 width="425.2px" height="215.3px" viewBox="0 0 425.2 215.3" enable-background="new 0 0 425.2 215.3" xml:space="preserve">
<text transform="matrix(1 0 0 1 19.4326 184.813)" fill="#FFFFFF" font-family="Orator Std" font-size="21.5901">Serrurerie Métallerie Tôlerie</text>
<line fill="none" stroke="#FFFFFF" stroke-width="0.4" x1="164.261" y1="163.063" x2="395.094" y2="163.063"/>
<g>
	<defs>
		<rect id="SVGID_1_" y="25" width="414.523" height="169.125"/>
	</defs>
	<clipPath id="SVGID_2_">
		<use xlink:href="#SVGID_1_"  overflow="visible"/>
	</clipPath>
	<path clip-path="url(#SVGID_2_)" fill="#FFFFFF" d="M72.819,55.012v-0.068c0-3.568,1.642-6.336,4.918-8.313
		c3.282-1.969,7.913-2.957,13.907-2.957c8.362,0,16.704,2.902,25.024,8.699l8.272-16.543c-4.995-3.469-10.39-6.142-16.187-8.016
		C102.95,25.934,97.25,25,91.644,25c-12.171,0-21.584,2.768-28.238,8.303c-5.68,4.729-8.915,11.141-9.744,19.213l19.315,4.498
		C72.887,56.375,72.819,55.723,72.819,55.012"/>
	<path clip-path="url(#SVGID_2_)" fill="#FFFFFF" d="M124.081,84.954c-1.949-3.658-4.561-6.529-7.843-8.625
		c-3.277-2.088-6.891-3.693-10.836-4.816c-1.79-0.506-3.588-0.963-5.387-1.398l-1.297-0.299c-1.735-0.396-3.474-0.783-5.222-1.115
		c-3.61-0.711-6.984-1.486-10.125-2.316c-0.604-0.16-1.169-0.348-1.735-0.545l-28.099-6.547c0.248,5.123,1.237,9.361,3.063,12.578
		c2.116,3.732,4.91,6.586,8.377,8.563c3.472,1.969,7.274,3.432,11.409,4.381c4.137,0.955,8.222,1.789,12.265,2.5
		c3.37,0.52,6.499,1.16,9.377,1.92c2.874,0.764,5.189,1.934,6.949,3.533c1.757,1.59,2.641,3.881,2.641,6.879v0.07
		c0,3.945-1.759,6.998-5.278,9.164c-3.518,2.158-8.464,3.242-14.833,3.242c-5.514,0-10.883-0.895-16.112-2.672
		c-5.231-1.785-9.837-4.314-13.833-7.598l-9.052,16.111c4.944,4.049,10.812,7.195,17.61,9.449
		c6.796,2.262,13.928,3.385,21.387,3.385c12.549,0,22.268-2.744,29.164-8.23c6.892-5.488,10.333-13.229,10.333-23.207v-0.143
		C127.002,93.37,126.03,88.614,124.081,84.954"/>
</g>
<polygon fill="#FFFFFF" points="231.317,26.531 215.039,84.118 222.449,110.504 239.305,49.7 239.305,130.198 257.053,130.198 
	257.053,26.531 "/>
<rect x="166.082" y="26.531" fill="#FFFFFF" width="17.706" height="103.667"/>
<polygon fill="#FFFFFF" points="211.566,96.401 191.819,26.531 190.421,26.531 190.421,73.467 202.941,118.645 217.85,118.645 
	211.582,96.342 "/>
<polygon fill="#FFFFFF" points="366.019,27.135 318.168,27.135 318.168,35.618 318.168,45.954 318.168,130.797 337.704,130.797 
	337.704,45.954 366.019,45.954 "/>
<rect x="290.011" y="27.135" fill="#FFFFFF" width="21.526" height="18.818"/>
<rect x="127.002" y="116.864" fill="#FFFFFF" width="15.248" height="13.334"/>
<rect x="262.396" y="117.463" fill="#FFFFFF" width="15.248" height="13.334"/>
<rect x="347.719" y="116.864" fill="#FFFFFF" width="15.245" height="13.334"/>
<g>
	<defs>
		<rect id="SVGID_3_" y="25" width="414.523" height="169.125"/>
	</defs>
	<clipPath id="SVGID_4_">
		<use xlink:href="#SVGID_3_"  overflow="visible"/>
	</clipPath>
	
		<line clip-path="url(#SVGID_4_)" fill="none" stroke="#FFFFFF" stroke-width="0.4" x1="19.431" y1="193.694" x2="395.093" y2="193.694"/>
</g>
</svg>
