<?xml version="1.0" standalone="no"?>
<!DOCTYPE svg PUBLIC "-//W3C//DTD SVG 20010904//EN"
 "http://www.w3.org/TR/2001/REC-SVG-20010904/DTD/svg10.dtd">
<svg version="1.0" xmlns="http://www.w3.org/2000/svg"
 width="426.000000pt" height="426.000000pt" viewBox="0 0 426.000000 426.000000"
 preserveAspectRatio="xMidYMid meet">
<metadata>
Created by potrace 1.14, written by Peter Selinger 2001-2017
</metadata>
<g transform="translate(0.000000,426.000000) scale(0.100000,-0.100000)"
fill="#000000" stroke="none">
<path d="M785 2946 c-117 -28 -192 -87 -226 -177 -32 -83 -31 -85 70 -108 107
-25 101 -25 101 -1 0 116 225 148 387 54 23 -13 44 -24 47 -24 3 0 24 36 46
80 l40 80 -37 23 c-82 51 -181 80 -283 83 -52 1 -118 -3 -145 -10z"/>
<path d="M1664 2941 c-2 -3 -4 -237 -4 -522 l1 -517 88 0 88 1 -1 521 -1 520
-83 1 c-46 0 -85 -2 -88 -4z"/>
<path d="M2313 2937 c-4 -7 -88 -297 -98 -338 -2 -9 -8 -34 -15 -55 -6 -22
-20 -71 -30 -110 l-19 -70 34 -124 c19 -68 37 -125 39 -128 3 -2 10 16 16 39
6 24 38 141 70 259 33 118 63 231 69 250 l9 35 2 -40 c1 -22 1 -200 1 -397 l0
-356 90 0 89 0 0 519 c0 286 -3 519 -7 520 -40 6 -246 2 -250 -4z"/>
<path d="M1907 2933 c-2 -5 -3 -114 -2 -243 l1 -235 49 -170 c26 -93 53 -190
59 -215 11 -41 16 -45 47 -50 19 -3 53 -3 75 -2 l41 4 -19 71 c-11 40 -23 86
-28 102 -4 17 -51 182 -104 368 -53 186 -96 344 -96 352 0 16 -17 29 -23 18z"/>
<path d="M2900 2844 l0 -94 108 0 108 0 -1 93 0 92 -108 1 -107 2 0 -94z"/>
<path d="M3180 2418 l0 -518 23 -1 c97 -4 144 -3 159 3 15 7 16 45 17 405 0
219 0 408 0 421 1 22 3 22 141 22 l141 0 -3 93 -3 92 -237 1 -238 1 0 -519z"/>
<path d="M539 2605 c-6 -53 25 -127 71 -172 44 -43 110 -67 264 -98 134 -26
180 -48 196 -90 10 -25 5 -67 -10 -96 -18 -32 -95 -61 -168 -62 -101 -1 -148
9 -231 50 -42 21 -79 39 -83 41 -6 3 -69 -103 -83 -140 -5 -13 5 -25 41 -48
202 -128 520 -122 654 12 101 100 106 312 12 406 -47 47 -104 74 -202 97 -41
10 -162 39 -267 64 -114 28 -193 43 -194 36z"/>
<path d="M1270 1970 l0 -67 75 -1 c83 -1 77 -7 77 73 0 19 -1 41 -1 48 -1 10
-21 14 -76 14 l-75 0 0 -67z"/>
<path d="M3479 2025 c-5 -60 -2 -108 6 -115 6 -4 40 -8 78 -8 l67 0 0 67 0 68
-75 -1 c-44 0 -75 -5 -76 -11z"/>
<path d="M2623 1971 c1 -33 5 -62 9 -66 4 -4 31 -7 60 -7 91 0 85 -5 84 67 l0
65 -77 0 -77 0 1 -59z"/>
<path d="M244 1542 c-25 -17 -23 -42 6 -64 30 -22 39 -51 19 -63 -5 -4 -19 1
-30 11 -20 18 -27 6 -7 -14 18 -18 46 -14 58 7 13 25 5 46 -26 66 -26 17 -33
45 -11 45 7 0 18 -5 25 -12 7 -7 12 -8 12 -2 0 11 -20 34 -29 34 -4 0 -11 -4
-17 -8z"/>
<path d="M1644 1536 c-5 -12 -2 -21 8 -27 9 -5 19 -21 23 -36 l7 -28 13 35 13
35 1 -57 c1 -32 5 -58 10 -58 10 0 7 138 -3 148 -4 3 -12 -9 -18 -26 l-12 -32
-17 32 c-15 29 -18 31 -25 14z"/>
<path d="M1804 1535 c-10 -8 -14 -14 -9 -15 15 0 40 18 34 24 -3 3 -14 -1 -25
-9z"/>
<path d="M3070 1540 c0 -6 7 -10 15 -10 12 0 15 -14 15 -66 0 -36 4 -63 8 -60
5 3 8 31 7 62 -1 48 2 57 19 64 22 9 20 10 -31 16 -18 2 -33 -1 -33 -6z"/>
<path d="M3220 1540 c-8 -5 -11 -12 -7 -16 4 -4 2 -13 -4 -20 -16 -19 -14 -73
3 -91 19 -19 58 -9 59 15 1 9 2 24 3 32 1 8 -3 24 -8 35 -6 11 -10 26 -11 34
0 18 -16 23 -35 11z m30 -14 c0 -11 -19 -15 -25 -6 -3 5 1 10 9 10 9 0 16 -2
16 -4z m8 -62 c4 -42 -22 -64 -38 -34 -16 30 -4 72 18 68 11 -2 18 -14 20 -34z"/>
<path d="M359 1503 c0 -7 -1 -26 -1 -43 0 -59 1 -60 37 -60 19 0 35 4 35 8 0
5 -13 7 -30 6 -24 -2 -30 2 -30 17 0 17 16 24 43 20 4 0 7 4 7 9 0 6 -11 10
-25 10 -16 0 -25 6 -25 15 0 10 10 15 30 15 17 0 30 3 30 8 0 13 -70 8 -71 -5z"/>
<path d="M486 1500 c-6 -23 -1 -88 7 -96 4 -4 7 5 7 19 0 34 15 34 36 2 20
-30 31 -26 14 5 -9 16 -9 25 0 35 17 20 -2 48 -34 50 -16 0 -28 -5 -30 -15z
m52 -17 c-5 -26 -38 -29 -38 -4 0 15 6 21 21 21 14 0 19 -5 17 -17z"/>
<path d="M638 1512 c-25 -3 -26 -6 -24 -52 2 -51 16 -83 16 -37 0 34 17 35 32
2 6 -14 15 -25 20 -25 12 0 10 14 -3 27 -7 7 -8 19 -4 30 19 45 9 61 -37 55z
m30 -29 c-5 -26 -38 -29 -38 -4 0 15 6 21 21 21 14 0 19 -5 17 -17z"/>
<path d="M800 1500 c-1 -14 -3 -38 -4 -54 0 -16 -7 -31 -13 -33 -16 -6 -27 22
-26 64 0 18 -4 33 -8 33 -10 0 -12 -54 -3 -87 4 -15 14 -23 29 -23 33 0 41 19
34 75 -3 28 -7 39 -9 25z"/>
<path d="M889 1513 c-12 -3 -16 -17 -16 -58 0 -30 4 -55 9 -55 4 0 8 11 8 25
0 14 5 25 10 25 6 0 16 -11 22 -25 6 -14 15 -25 19 -25 5 0 4 11 -2 24 -8 17
-8 29 0 45 7 12 10 25 7 30 -7 11 -36 18 -57 14z m39 -30 c-2 -10 -10 -18 -18
-18 -8 0 -16 8 -18 18 -2 12 3 17 18 17 15 0 20 -5 18 -17z"/>
<path d="M1006 1510 c-2 -3 -2 -27 -2 -55 1 -49 2 -50 34 -53 17 -2 32 1 32 6
0 5 -12 8 -26 6 -21 -2 -25 1 -22 19 2 15 9 21 21 19 9 -2 17 2 17 8 0 5 -9
10 -20 10 -11 0 -20 7 -20 15 0 9 9 15 25 15 14 0 25 4 25 9 0 8 -60 10 -64 1z"/>
<path d="M1143 1513 c-16 -6 -18 -113 -3 -113 6 0 9 3 9 8 -7 44 15 56 33 17
6 -14 15 -25 19 -25 5 0 4 11 -2 24 -8 16 -8 29 -1 43 6 10 7 25 3 31 -8 14
-39 22 -58 15z m47 -27 c0 -13 -20 -26 -40 -26 -4 0 -6 9 -3 20 6 22 43 28 43
6z"/>
<path d="M1285 1509 c-11 -4 -15 -8 -9 -8 15 -1 14 -83 0 -93 -6 -5 -2 -8 10
-8 20 0 21 4 16 46 -3 31 -1 49 8 54 18 11 -2 19 -25 9z"/>
<path d="M1409 1513 c-13 -3 -16 -15 -15 -56 1 -51 2 -52 34 -55 17 -2 32 1
32 6 0 6 -9 8 -21 5 -12 -4 -25 0 -29 8 -11 17 -3 29 21 29 10 0 19 5 19 11 0
6 -9 9 -20 6 -15 -4 -20 0 -20 14 0 14 7 19 27 19 14 0 23 3 19 7 -8 8 -26 11
-47 6z"/>
<path d="M1808 1512 c-27 -3 -28 -6 -28 -58 l0 -54 38 1 c27 1 31 3 12 6 -42
8 -50 43 -9 43 10 0 19 5 19 10 0 6 -11 10 -25 10 -35 0 -27 24 10 30 37 6 21
17 -17 12z"/>
<path d="M1900 1508 c0 -5 8 -8 18 -8 16 0 18 -7 17 -45 -2 -25 1 -48 6 -51 5
-3 9 18 9 45 0 39 4 51 15 51 8 0 15 3 15 8 0 4 -18 7 -40 7 -22 0 -40 -3 -40
-7z"/>
<path d="M2430 1459 l0 -59 37 0 c38 0 40 12 2 14 -26 1 -36 35 -11 37 10 1
20 1 25 0 4 0 7 4 7 9 0 6 -12 10 -26 10 -35 0 -26 23 12 31 33 8 32 9 -13 13
l-33 4 0 -59z"/>
<path d="M2564 1508 c-10 -16 -12 -98 -2 -104 4 -3 8 6 8 20 0 33 15 33 36 1
19 -30 31 -26 15 4 -9 15 -8 26 1 41 9 13 9 23 2 30 -16 16 -53 20 -60 8z m44
-25 c-2 -10 -10 -18 -18 -18 -8 0 -16 8 -18 18 -2 12 3 17 18 17 15 0 20 -5
18 -17z"/>
<path d="M2705 1509 c-11 -4 -14 -8 -7 -8 10 -1 13 -14 10 -51 -2 -43 0 -50
15 -50 13 0 16 4 10 18 -10 20 -9 64 1 80 9 15 -5 21 -29 11z"/>
<path d="M2819 1498 c-1 -23 -1 -75 0 -88 1 -5 18 -10 39 -10 24 0 32 3 23 9
-7 5 -22 6 -32 4 -14 -4 -19 0 -19 16 0 19 15 27 43 22 4 0 7 4 7 9 0 6 -11
10 -25 10 -16 0 -25 6 -25 15 0 10 10 15 32 15 39 0 29 13 -12 14 -22 1 -30
-4 -31 -16z"/>
<path d="M3339 1512 c0 -7 -1 -25 -1 -42 0 -71 0 -70 37 -70 19 0 35 4 35 8 0
4 -12 8 -27 8 -27 -1 -28 2 -30 48 -2 44 -12 77 -14 48z"/>
<path d="M3472 1506 c-5 -6 -8 -31 -8 -56 1 -43 2 -45 34 -48 17 -2 32 1 32 6
0 5 -11 8 -25 7 -19 -3 -25 1 -25 16 0 14 7 19 27 19 23 0 25 13 2 16 -5 1
-13 2 -19 3 -5 0 -10 7 -10 15 0 9 12 16 33 18 l32 3 -33 6 c-18 3 -36 1 -40
-5z"/>
<path d="M3603 1511 c-13 -8 -16 -111 -3 -111 6 0 10 11 10 25 0 32 17 32 32
0 6 -13 15 -22 20 -19 5 3 2 14 -7 24 -11 12 -13 20 -6 25 12 7 15 55 4 56 -5
0 -15 2 -24 4 -9 1 -21 0 -26 -4z m42 -30 c0 -23 -23 -24 -35 -1 -10 19 -9 21
12 18 13 -2 23 -9 23 -17z"/>
<path d="M3734 1509 c-3 -5 0 -9 5 -9 15 0 14 -73 -1 -88 -9 -9 -5 -12 17 -12
17 0 25 4 19 8 -14 9 -17 84 -3 93 6 3 2 9 -10 12 -12 3 -24 1 -27 -4z"/>
<path d="M3869 1512 c-13 -2 -17 -15 -18 -58 l0 -54 34 0 c19 0 35 4 35 9 0 4
-11 6 -25 3 -21 -4 -25 -1 -25 21 0 20 4 24 20 20 11 -3 20 0 20 6 0 6 -9 11
-20 11 -34 0 -23 28 13 32 29 3 30 4 7 8 -14 3 -32 4 -41 2z"/>
<path d="M2045 1460 c-9 -28 -14 -54 -11 -57 3 -3 8 2 12 11 3 9 13 16 21 16
13 0 13 3 3 15 -10 12 -10 19 -2 27 9 9 12 8 12 -5 0 -21 21 -67 31 -67 11 0
-25 103 -38 107 -6 2 -19 -19 -28 -47z"/>
<path d="M2171 1455 l-2 -55 42 0 c46 0 47 12 2 14 -26 1 -27 3 -24 49 1 26
-2 47 -7 47 -5 0 -10 -25 -11 -55z"/>
<path d="M2302 1458 l3 -53 40 -3 c22 -2 37 -1 34 3 -4 3 -20 7 -35 8 -27 2
-29 5 -28 50 1 26 -3 47 -8 47 -4 0 -7 -24 -6 -52z"/>
<path d="M1641 1448 c-1 -28 2 -48 6 -44 11 10 14 96 4 96 -4 0 -9 -23 -10
-52z"/>
</g>
</svg>
